#!OML:ASF G:\JayActor3\Patient Classification 1\Patient 1\Session 2\male.ASF
:FULLY-SPECIFIED
:DEGREES
3863
root -19.2382 16.8297 -4.8751 4502.99 -82.9288 -1623.39
lowerback -0.0579448 -0.26195 -2.91416
upperback 6.50256 -0.29713 -2.66157
thorax 6.8005 -0.313691 -1.17638
lowerneck -8.78151 0.874364 0.00607991
upperneck 20.8087 0.112966 3.1886
head 7.85769 0.187636 1.03856
rclavicle 7.7526e-015 -3.97569e-015
rhumerus -29.4337 -0.169062 -87.6016
rradius 23.6089
rwrist -1.31433
rhand -21.3323 5.9384
rfingers 7.12502
rthumb 5.05348 -23.9813
lclavicle 7.7526e-015 -3.97569e-015
lhumerus -16.4454 8.25517 81.4697
lradius 23.6809
lwrist 5.45968
lhand -19.6671 16.9495
lfingers 7.12502
lthumb 6.66122 46.8247
rfemur -17.0837 -1.28554 20.3316
rtibia 67.1581
rfoot -15.258 -10.709
rtoes 13.0869
lfemur -11.5969 11.3003 -23.9638
ltibia 24.5847
lfoot -10.6624 1.44621
ltoes 1.80894
3864
root -19.3246 16.8224 -4.8674 4502.79 -82.8202 -1623.25
lowerback -0.0274774 -0.299436 -2.93519
upperback 6.55941 -0.350171 -2.64225
thorax 6.84423 -0.343631 -1.14857
lowerneck -8.79503 0.890775 0.000124801
upperneck 20.846 0.164735 3.04584
head 7.87166 0.198461 0.997533
rclavicle 1.8487e-014 -7.95139e-015
rhumerus -29.6707 -0.133113 -87.4739
rradius 23.8621
rwrist -1.5621
rhand -21.3092 5.91176
rfingers 7.12502
rthumb 5.07578 -24.0074
lclavicle 1.8487e-014 -7.95139e-015
lhumerus -15.9321 7.84928 81.6115
lradius 24.1674
lwrist 5.81253
lhand -19.7375 16.884
lfingers 7.12502
lthumb 6.59324 46.7613
rfemur -17.8102 -0.996075 20.4594
rtibia 66.7365
rfoot -16.1945 -10.8417
rtoes 12.1681
lfemur -11.3332 11.1086 -23.9856
ltibia 24.8333
lfoot -11.0173 1.76988
ltoes 1.69883
3865
root -19.4105 16.8142 -4.86007 4502.58 -82.7085 -1623.1
lowerback 0.00238489 -0.333662 -2.95613
upperback 6.61317 -0.399054 -2.61609
thorax 6.88511 -0.37161 -1.11334
lowerneck -8.81567 0.9044 -0.00893945
upperneck 20.8845 0.211289 2.91227
head 7.88749 0.207455 0.959612
rclavicle -3.97569e-016 -1.11319e-014
rhumerus -29.8971 -0.113987 -87.3419
rradius 24.1094
rwrist -1.76802
rhand -21.302 5.88379
rfingers 7.12502
rthumb 5.08275 -24.0353
lclavicle -3.97569e-016 -1.11319e-014
lhumerus -15.4303 7.45335 81.7563
lradius 24.6553
lwrist 6.18913
lhand -19.7913 16.8434
lfingers 7.12502
lthumb 6.5413 46.7224
rfemur -18.5288 -0.698892 20.5874
rtibia 66.2313
rfoot -17.0776 -10.9922
rtoes 11.5353
lfemur -11.0802 10.8858 -24.0096
ltibia 25.0952
lfoot -11.4121 2.12103
ltoes 1.59413
3866
root -19.4961 16.805 -4.85331 4502.34 -82.5898 -1622.91
lowerback 0.0326008 -0.363597 -2.97597
upperback 6.66409 -0.442479 -2.58382
thorax 6.92284 -0.396924 -1.07193
lowerneck -8.8372 0.916157 -0.0162572
upperneck 20.9177 0.254455 2.78311
head 7.90186 0.215383 0.922505
rclavicle -1.41137e-014 1.98785e-014
rhumerus -30.1087 -0.112544 -87.2052
rradius 24.3445
rwrist -1.93416
rhand -21.3018 5.8539
rfingers 7.12502
rthumb 5.08294 -24.0651
lclavicle -1.41137e-014 1.98785e-014
lhumerus -14.9441 7.06212 81.9019
lradius 25.1446
lwrist 6.57771
lhand -19.8214 16.844
lfingers 7.12502
lthumb 6.51222 46.7239
rfemur -19.2386 -0.388467 20.7179
rtibia 65.6511
rfoot -17.9243 -11.1338
rtoes 11.2027
lfemur -10.8347 10.6471 -24.031
ltibia 25.3706
lfoot -11.8362 2.48687
ltoes 1.49224
3867
root -19.5812 16.7948 -4.8471 4502.09 -82.4652 -1622.71
lowerback 0.0675242 -0.390303 -2.9965
upperback 6.71269 -0.482075 -2.54565
thorax 6.95547 -0.420505 -1.02359
lowerneck -8.85594 0.927402 -0.0199466
upperneck 20.9413 0.297221 2.65281
head 7.91265 0.223304 0.884296
rclavicle -3.97569e-015 1.11319e-014
rhumerus -30.2997 -0.115134 -87.0638
rradius 24.5652
rwrist -2.07509
rhand -21.2929 5.8016
rfingers 7.12502
rthumb 5.0915 -24.1172
lclavicle -3.97569e-015 1.11319e-014
lhumerus -14.4765 6.67522 82.0484
lradius 25.6377
lwrist 6.97444
lhand -19.8252 16.9037
lfingers 7.12502
lthumb 6.50853 46.7837
rfemur -19.9397 -0.0655173 20.8472
rtibia 65.0039
rfoot -18.7232 -11.2708
rtoes 10.999
lfemur -10.5932 10.4047 -24.0492
ltibia 25.6574
lfoot -12.275 2.85205
ltoes 1.39656
3868
root -19.6659 16.7838 -4.84155 4501.86 -82.3276 -1622.54
lowerback 0.108131 -0.411349 -3.02236
upperback 6.7585 -0.51438 -2.50531
thorax 6.98196 -0.440833 -0.969409
lowerneck -8.87721 0.938855 -0.0215448
upperneck 20.9581 0.339929 2.52514
head 7.92168 0.231686 0.846577
rclavicle -1.70955e-014 2.94201e-014
rhumerus -30.4683 -0.133131 -86.9184
rradius 24.7676
rwrist -2.18854
rhand -21.2766 5.74514
rfingers 7.12502
rthumb 5.10731 -24.1733
lclavicle -1.70955e-014 2.94201e-014
lhumerus -14.0274 6.27961 82.1932
lradius 26.1278
lwrist 7.39471
lhand -19.8222 16.9711
lfingers 7.12502
lthumb 6.51146 46.851
rfemur -20.6365 0.276649 20.9676
rtibia 64.2974
rfoot -19.4764 -11.3829
rtoes 10.941
lfemur -10.3522 10.1826 -24.0685
ltibia 25.9468
lfoot -12.714 3.20237
ltoes 1.25299
3869
root -19.7501 16.7721 -4.83675 4501.66 -82.1773 -1622.39
lowerback 0.154196 -0.427236 -3.05386
upperback 6.80149 -0.540065 -2.46217
thorax 7.00239 -0.458274 -0.908586
lowerneck -8.89312 0.951603 -0.0188931
upperneck 20.9626 0.38514 2.39439
head 7.92569 0.241334 0.807264
rclavicle 1.11319e-014 3.81667e-014
rhumerus -30.6142 -0.149602 -86.7751
rradius 24.9486
rwrist -2.31358
rhand -21.2676 5.70105
rfingers 7.12502
rthumb 5.11601 -24.2172
lclavicle 1.11319e-014 3.81667e-014
lhumerus -13.6013 5.8722 82.3366
lradius 26.6192
lwrist 7.8314
lhand -19.8273 17.018
lfingers 7.12502
lthumb 6.50651 46.8981
rfemur -21.323 0.641989 21.0793
rtibia 63.5377
rfoot -20.1889 -11.4629
rtoes 10.9807
lfemur -10.1066 9.9974 -24.0863
ltibia 26.2306
lfoot -13.1455 3.52194
ltoes 1.06206
